<svg xmlns="http://www.w3.org/2000/svg" height="24" viewBox="0 96 960 960" width="24"><path d="M480 618.153 277.076 821.076q-8.307 8.308-20.884 8.5-12.576.193-21.268-8.5-8.693-8.692-8.693-21.076t8.693-21.076L437.847 576 234.924 373.076q-8.308-8.307-8.5-20.884-.193-12.576 8.5-21.268 8.692-8.693 21.076-8.693t21.076 8.693L480 533.847l202.924-202.923q8.307-8.308 20.884-8.5 12.576-.193 21.268 8.5 8.693 8.692 8.693 21.076t-8.693 21.076L522.153 576l202.923 202.924q8.308 8.307 8.5 20.884.193 12.576-8.5 21.268-8.692 8.693-21.076 8.693t-21.076-8.693L480 618.153Z"/></svg>