<svg width="129" height="128" viewBox="0 0 129 128" fill="none" xmlns="http://www.w3.org/2000/svg">
<path d="M129 64C129 99.3462 100.346 128 65.0001 128C29.6538 128 1.00007 99.3462 1.00007 64C1.00007 28.6538 29.6538 0 65.0001 0C100.346 0 129 28.6538 129 64ZM13.1537 64C13.1537 92.634 36.3661 115.846 65.0001 115.846C93.634 115.846 116.846 92.634 116.846 64C116.846 35.366 93.634 12.1536 65.0001 12.1536C36.3661 12.1536 13.1537 35.366 13.1537 64Z" fill="#E0DCE3"/>
<path d="M50.5561 68.734H46.3401V74.14H42.0561V68.734H29.0001V65.674L40.7301 50.34H45.4561L34.4061 64.994H42.1921V60.2H46.3401V64.994H50.5561V68.734Z" fill="#757376"/>
<path d="M62.3442 74.48C60.4402 74.48 58.7402 74.004 57.2442 73.052C55.7482 72.0773 54.5696 70.672 53.7082 68.836C52.8469 66.9773 52.4162 64.7787 52.4162 62.24C52.4162 59.7013 52.8469 57.514 53.7082 55.678C54.5696 53.8193 55.7482 52.414 57.2442 51.462C58.7402 50.4873 60.4402 50 62.3442 50C64.2482 50 65.9482 50.4873 67.4442 51.462C68.9629 52.414 70.1529 53.8193 71.0142 55.678C71.8756 57.514 72.3062 59.7013 72.3062 62.24C72.3062 64.7787 71.8756 66.9773 71.0142 68.836C70.1529 70.672 68.9629 72.0773 67.4442 73.052C65.9482 74.004 64.2482 74.48 62.3442 74.48ZM62.3442 70.638C64.0442 70.638 65.3816 69.9353 66.3562 68.53C67.3536 67.1247 67.8522 65.028 67.8522 62.24C67.8522 59.452 67.3536 57.3553 66.3562 55.95C65.3816 54.5447 64.0442 53.842 62.3442 53.842C60.6669 53.842 59.3296 54.5447 58.3322 55.95C57.3576 57.3553 56.8702 59.452 56.8702 62.24C56.8702 65.028 57.3576 67.1247 58.3322 68.53C59.3296 69.9353 60.6669 70.638 62.3442 70.638Z" fill="#757376"/>
<path d="M80.5972 63.158C78.8972 63.158 77.5259 62.5573 76.4832 61.356C75.4405 60.1547 74.9192 58.5793 74.9192 56.63C74.9192 54.6807 75.4405 53.1053 76.4832 51.904C77.5259 50.7027 78.8972 50.102 80.5972 50.102C82.2972 50.102 83.6685 50.7027 84.7112 51.904C85.7765 53.0827 86.3092 54.658 86.3092 56.63C86.3092 58.602 85.7765 60.1887 84.7112 61.39C83.6685 62.5687 82.2972 63.158 80.5972 63.158ZM94.8772 50.34H98.2092L81.9572 74.14H78.6252L94.8772 50.34ZM80.5972 60.778C81.5265 60.778 82.2405 60.4153 82.7392 59.69C83.2605 58.9647 83.5212 57.9447 83.5212 56.63C83.5212 55.3153 83.2605 54.2953 82.7392 53.57C82.2405 52.8447 81.5265 52.482 80.5972 52.482C79.7132 52.482 78.9992 52.856 78.4552 53.604C77.9339 54.3293 77.6732 55.338 77.6732 56.63C77.6732 57.922 77.9339 58.942 78.4552 59.69C78.9992 60.4153 79.7132 60.778 80.5972 60.778ZM96.2032 74.378C94.5032 74.378 93.1319 73.7773 92.0892 72.576C91.0465 71.3747 90.5252 69.7993 90.5252 67.85C90.5252 65.9007 91.0465 64.3253 92.0892 63.124C93.1319 61.9227 94.5032 61.322 96.2032 61.322C97.9032 61.322 99.2745 61.9227 100.317 63.124C101.383 64.3253 101.915 65.9007 101.915 67.85C101.915 69.7993 101.383 71.3747 100.317 72.576C99.2745 73.7773 97.9032 74.378 96.2032 74.378ZM96.2032 71.998C97.1099 71.998 97.8239 71.6353 98.3452 70.91C98.8665 70.162 99.1272 69.142 99.1272 67.85C99.1272 66.558 98.8665 65.5493 98.3452 64.824C97.8239 64.076 97.1099 63.702 96.2032 63.702C95.2965 63.702 94.5825 64.0647 94.0612 64.79C93.5399 65.5153 93.2792 66.5353 93.2792 67.85C93.2792 69.1647 93.5399 70.1847 94.0612 70.91C94.5825 71.6353 95.2965 71.998 96.2032 71.998Z" fill="#757376"/>
<path d="M40.1386 113.721C38.5098 117.252 34.302 118.826 30.9716 116.819C21.4816 111.101 13.6016 102.994 8.15152 93.256C1.5509 81.462 -1.14654 67.8811 0.445807 54.4597C2.03816 41.0384 7.83854 28.4657 17.0156 18.5435C24.5931 10.351 34.1514 4.31271 44.7158 0.974385C48.4232 -0.19714 52.146 2.31776 52.9034 6.13135C53.6609 9.94494 51.1583 13.6035 47.489 14.8895C39.8322 17.5731 32.9093 22.0958 27.3522 28.104C20.1941 35.8432 15.6698 45.6499 14.4277 56.1186C13.1857 66.5872 15.2897 77.1803 20.4382 86.3797C24.4351 93.5214 30.1076 99.5385 36.9239 103.939C40.1904 106.048 41.7674 110.191 40.1386 113.721Z" fill="#06918D"/>
</svg>
