<svg width="860" height="47" viewBox="0 0 860 47" fill="none" xmlns="http://www.w3.org/2000/svg">
<path d="M35 23.5C35 29.8513 29.8513 35 23.5 35C17.1487 35 12 29.8513 12 23.5C12 17.1487 17.1487 12 23.5 12C29.8513 12 35 17.1487 35 23.5Z" fill="#01FBE6"/>
<path fill-rule="evenodd" clip-rule="evenodd" d="M47 23.5C47 36.4787 36.4787 47 23.5 47C10.5213 47 0 36.4787 0 23.5C0 10.5213 10.5213 0 23.5 0C36.4787 0 47 10.5213 47 23.5ZM45 23.5C45 35.3741 35.3741 45 23.5 45C11.6259 45 2 35.3741 2 23.5C2 11.6259 11.6259 2 23.5 2C35.3741 2 45 11.6259 45 23.5Z" fill="#01FBE6"/>
<path d="M53 23.9999L860 24V26L53 25.9999V23.9999Z" fill="#01FBE6"/>
</svg>
