<svg width="129" height="128" viewBox="0 0 129 128" fill="none" xmlns="http://www.w3.org/2000/svg">
<path d="M129 64C129 99.3462 100.346 128 65 128C29.6538 128 1 99.3462 1 64C1 28.6538 29.6538 0 65 0C100.346 0 129 28.6538 129 64ZM13.1536 64C13.1536 92.634 36.366 115.846 65 115.846C93.634 115.846 116.846 92.634 116.846 64C116.846 35.366 93.634 12.1536 65 12.1536C36.366 12.1536 13.1536 35.366 13.1536 64Z" fill="#E0DCE3"/>
<path d="M8.49688 76.4105C4.63998 77.2576 0.784847 74.8171 0.366243 70.8905C-0.211548 65.4707 -0.105335 59.9995 0.682369 54.6062C1.25305 50.6988 5.2 48.4097 9.02112 49.4059C12.8422 50.4021 15.0783 54.3094 14.6291 58.2326C14.2651 61.4114 14.2029 64.6176 14.4432 67.8081C14.7398 71.7458 12.3538 75.5633 8.49688 76.4105Z" fill="#06918D"/>
<path d="M45.958 52.2V55.77L37.118 76H31.134L39.668 56.688H31.78V60.564H26.884V52.2H45.958Z" fill="#757376"/>
<path d="M49.9118 69.676C50.8638 69.676 51.6458 69.982 52.2578 70.594C52.8698 71.1833 53.1758 71.9653 53.1758 72.94C53.1758 73.3933 53.1192 73.8467 53.0058 74.3C52.8925 74.7533 52.6432 75.4333 52.2578 76.34L50.3198 81.236H46.9538L48.4498 75.83C47.8832 75.6033 47.4298 75.2407 47.0898 74.742C46.7725 74.2207 46.6138 73.62 46.6138 72.94C46.6138 71.9653 46.9198 71.1833 47.5318 70.594C48.1665 69.982 48.9598 69.676 49.9118 69.676Z" fill="#757376"/>
<path d="M63.8083 61.142C67.1629 61.142 69.6336 61.8107 71.2203 63.148C72.8296 64.4853 73.6343 66.276 73.6343 68.52C73.6343 69.9707 73.2716 71.2967 72.5463 72.498C71.8209 73.6767 70.7103 74.6287 69.2143 75.354C67.7409 76.0567 65.9163 76.408 63.7403 76.408C62.0629 76.408 60.4083 76.1927 58.7763 75.762C57.1669 75.3087 55.7956 74.674 54.6623 73.858L56.8383 69.642C57.7449 70.322 58.7876 70.8547 59.9663 71.24C61.1449 71.6027 62.3576 71.784 63.6043 71.784C64.9869 71.784 66.0749 71.512 66.8683 70.968C67.6616 70.424 68.0583 69.6647 68.0583 68.69C68.0583 67.67 67.6389 66.8993 66.8003 66.378C65.9843 65.8567 64.5563 65.596 62.5163 65.596H56.4303L57.6543 52.2H72.1723V56.62H62.2443L61.8703 61.142H63.8083Z" fill="#757376"/>
<path d="M81.0449 65.052C79.2996 65.052 77.8716 64.4627 76.7609 63.284C75.6729 62.0827 75.1289 60.4847 75.1289 58.49C75.1289 56.4953 75.6729 54.9087 76.7609 53.73C77.8716 52.5287 79.2996 51.928 81.0449 51.928C82.7903 51.928 84.2069 52.5287 85.2949 53.73C86.3829 54.9087 86.9269 56.4953 86.9269 58.49C86.9269 60.4847 86.3829 62.0827 85.2949 63.284C84.2069 64.4627 82.7903 65.052 81.0449 65.052ZM95.2229 52.2H99.2689L83.0169 76H78.9709L95.2229 52.2ZM81.0449 62.264C81.8156 62.264 82.4163 61.9467 82.8469 61.312C83.3003 60.6773 83.5269 59.7367 83.5269 58.49C83.5269 57.2433 83.3003 56.3027 82.8469 55.668C82.4163 55.0333 81.8156 54.716 81.0449 54.716C80.2969 54.716 79.6963 55.0447 79.2429 55.702C78.7896 56.3367 78.5629 57.266 78.5629 58.49C78.5629 59.714 78.7896 60.6547 79.2429 61.312C79.6963 61.9467 80.2969 62.264 81.0449 62.264ZM97.1949 76.272C96.0616 76.272 95.0416 76.0113 94.1349 75.49C93.2509 74.946 92.5596 74.1753 92.0609 73.178C91.5623 72.1807 91.3129 71.0247 91.3129 69.71C91.3129 68.3953 91.5623 67.2393 92.0609 66.242C92.5596 65.2447 93.2509 64.4853 94.1349 63.964C95.0416 63.42 96.0616 63.148 97.1949 63.148C98.9403 63.148 100.357 63.7487 101.445 64.95C102.556 66.1287 103.111 67.7153 103.111 69.71C103.111 71.7047 102.556 73.3027 101.445 74.504C100.357 75.6827 98.9403 76.272 97.1949 76.272ZM97.1949 73.484C97.9656 73.484 98.5663 73.1667 98.9969 72.532C99.4503 71.8747 99.6769 70.934 99.6769 69.71C99.6769 68.486 99.4503 67.5567 98.9969 66.922C98.5663 66.2647 97.9656 65.936 97.1949 65.936C96.4469 65.936 95.8463 66.2533 95.3929 66.888C94.9396 67.5227 94.7129 68.4633 94.7129 69.71C94.7129 70.9567 94.9396 71.8973 95.3929 72.532C95.8463 73.1667 96.4469 73.484 97.1949 73.484Z" fill="#757376"/>
</svg>
