<svg width="146" height="56" viewBox="0 0 146 56" fill="none" xmlns="http://www.w3.org/2000/svg">
<g clip-path="url(#clip0_5470_2763)">
<path d="M98.7326 8.95395V44.7121H96.2415V8.95395H98.7326ZM110.383 19.732V44.7121H107.892V19.732H110.383ZM107.54 12.7918C107.54 11.3211 108.068 10.5857 109.125 10.5857C109.645 10.5857 110.052 10.7772 110.345 11.1601C110.639 11.5432 110.786 12.0871 110.786 12.7918C110.786 13.4813 110.639 14.0252 110.345 14.4234C110.052 14.8217 109.645 15.0209 109.125 15.0209C108.068 15.0209 107.54 14.2779 107.54 12.7918ZM116.347 44.7121L126.261 31.8658L116.724 19.732H119.593L127.745 30.2572L135.823 19.732H138.566L129.18 31.8658L139.245 44.7121H136.351L127.745 33.5664L119.09 44.7121H116.347Z" fill="#F1F1F1"/>
<path d="M64.5615 44.7121V11.1141H74.6519C79.1979 11.1141 82.5361 11.8189 84.6667 13.2285C86.7971 14.638 87.8623 16.7675 87.8623 19.6171C87.8623 21.5628 87.2122 23.183 85.9121 24.4776C84.612 25.7721 82.7123 26.6031 80.2128 26.9708V27.1088C83.1484 27.5071 85.3083 28.3536 86.6924 29.6482C88.0763 30.9429 88.7683 32.7469 88.7683 35.0602C88.7683 38.1549 87.6443 40.5372 85.3965 42.2072C83.1486 43.8771 79.9613 44.7121 75.8346 44.7121H64.5615ZM67.1282 13.1826V26.0748H75.2305C78.6863 26.0748 81.1984 25.55 82.7667 24.5005C84.3353 23.4511 85.1196 21.808 85.1196 19.5711C85.1196 17.3343 84.2347 15.7104 82.465 14.6992C80.6951 13.6881 78.0572 13.1826 74.5512 13.1826H67.1282ZM75.2305 28.143H67.1282V42.6439H75.7841C82.5949 42.6439 86.0002 40.116 86.0002 35.0602C86.0002 30.4487 82.4103 28.143 75.2305 28.143Z" fill="#F1F1F1"/>
<path d="M12.6849 46.5357L4.18298 31.5198L3.10911 29.5534C2.9301 28.9873 2.82569 28.2722 2.79588 27.4082C2.76606 26.5442 3.19862 25.3376 4.09354 23.7883L10.6266 12.5712L14.609 6.09107C14.9671 5.61441 15.5637 5.10789 16.399 4.57153C17.2342 4.03532 18.323 3.7821 19.6656 3.81187L33.8055 3.99051H37.8776C37.0721 4.22885 36.4457 4.61619 35.9982 5.15255C35.327 5.95687 34.6558 6.62721 34.074 7.78925C33.6862 8.56395 30.7179 13.5544 25.1692 22.7605L13.7588 42.2008C13.2219 43.1839 12.8639 44.0032 12.6849 44.6586C12.5059 45.3141 12.5059 45.9397 12.6849 46.5357Z" fill="#F1F1F1"/>
<path d="M18.4572 52.0326C16.8762 51.7049 15.668 50.9005 14.8327 49.6194C13.5798 47.6977 13.5351 45.0161 13.8036 43.9883C13.9825 43.3031 15.7276 40.2046 19.039 34.6928L46.0215 35.0057C50.4365 34.946 52.9124 34.8268 53.4493 34.6482C53.9863 34.4694 54.5233 34.1417 55.0602 33.665C48.3781 44.8375 44.7387 50.677 44.142 51.1834C43.247 51.9433 42.6653 52.0773 42.0388 52.1219C41.6212 52.1517 35.8041 52.1666 24.5876 52.1666L18.4572 52.0326Z" fill="#F1F1F1"/>
<path d="M41.6809 34.2458L30.718 14.9397C33.6712 9.72584 35.3418 6.89546 35.7296 6.44857C36.3114 5.77823 36.9825 4.97369 37.6537 4.79505C38.3249 4.61619 40.6517 3.23085 43.6498 4.66085C45.6484 5.61433 50.0188 12.5712 56.7608 25.5314C57.171 26.7603 57.3201 27.8924 57.2082 28.9277C57.0403 30.4807 56.8165 31.0617 56.0894 31.8773C55.3625 32.6928 55.1499 32.9051 54.1655 33.5754C53.5092 34.0223 52.5993 34.2905 51.4358 34.38L41.6809 34.2458Z" fill="#F1F1F1"/>
</g>
<defs>
<clipPath id="clip0_5470_2763">
<rect width="145.385" height="55" fill="white" transform="translate(0 0.5)"/>
</clipPath>
</defs>
</svg>
